<?xml version="1.0" encoding="utf-8"?>
<!-- Svg Vector Icons : http://www.onlinewebfonts.com/icon -->
<!DOCTYPE svg PUBLIC "-//W3C//DTD SVG 1.1//EN" "http://www.w3.org/Graphics/SVG/1.1/DTD/svg11.dtd">
<svg version="1.1" xmlns="http://www.w3.org/2000/svg" xmlns:xlink="http://www.w3.org/1999/xlink" x="0px" y="0px" viewBox="0 0 1000 1000" enable-background="new 0 0 1000 1000" xml:space="preserve">
<metadata> Svg Vector Icons : http://www.onlinewebfonts.com/icon </metadata>
<g><g transform="translate(0.000000,512.000000) scale(0.100000,-0.100000)"><path d="M4689.4,5017.2c-759.1-65.2-1353.4-232-1968.8-554c-893.3-465.8-1652.5-1236.5-2104.9-2137.5C262.9,1622.2,100,920.6,100,111.6c1.9-594.3,70.9-1014.1,258.8-1568.1c594.3-1761.8,2131.7-3025.1,3993.1-3282c1154-159.1,2369.4,120.8,3347.1,772.6C9742.6-2604.8,10473,17.7,9422.5,2229.9c-245.4,511.9-540.6,927.8-964.3,1353.4C7674.1,4367.4,6754,4823.6,5647.9,4980.8C5448.5,5009.6,4854.2,5032.6,4689.4,5017.2z M4616.5,3433.8c116.9-67.1,168.7-170.6,168.7-339.3c0-136.1,0-138,44.1-122.7c23,7.7,97.8,15.3,166.8,15.3s143.8-7.7,168.7-15.3c42.2-15.3,42.2-13.4,42.2,122.7c0,176.4,53.7,281.8,178.3,341.2c78.6,38.3,111.2,40.3,747.6,40.3c421.7,0,682.5-7.7,717-21.1c130.4-49.8,216.6-182.1,216.6-339.3v-92l86.3-23c191.7-51.8,222.4-287.6,47.9-377.7c-30.7-15.3-72.9-28.8-93.9-28.8c-34.5,0-38.3-15.3-44.1-264.6c-5.7-258.8-7.6-268.4-61.3-337.4c-107.3-141.9-128.4-145.7-864.6-145.7c-592.4,0-659.5,3.8-728.5,36.4c-88.2,40.3-151.5,103.5-180.2,180.2c-11.5,30.7-21.1,185.9-21.1,348.9c0,161-5.8,308.6-11.5,325.9c-19.2,46-111.2,86.3-199.4,86.3s-180.2-40.3-199.4-86.3c-5.8-17.3-11.5-164.9-11.5-325.9c0-162.9-9.6-318.2-21.1-348.9c-28.8-76.7-92-139.9-180.2-180.2c-69-32.6-136.1-36.4-728.5-36.4c-736.1,0-757.2,3.8-864.6,145.7c-53.7,69-55.6,78.6-61.3,337.4c-5.8,249.2-9.6,264.6-44.1,264.6c-103.5,0-209,101.6-209,201.3c0,97.8,65.2,178.3,162.9,205.1l86.3,23v90.1c0,113.1,24.9,184,92,255c97.8,103.5,111.2,105.4,845.4,107.4C4530.2,3476,4541.7,3476,4616.5,3433.8z M6117.5,1580c63.2-28.8,134.2-74.8,157.2-99.7c51.8-55.6,118.9-203.2,120.8-258.8c0-36.4,13.4-42.2,111.2-51.8c134.2-11.5,199.4-42.2,295.2-138c84.4-86.3,126.5-168.7,141.9-285.6c9.6-63.3,30.7-109.3,78.6-161c36.4-38.3,88.2-118.9,116.9-176.4c44.1-92,51.8-128.4,49.9-278c0-163-19.2-245.4-337.4-1409c-341.2-1242.2-439-1570.1-498.4-1669.7c-44.1-72.9-143.8-120.8-360.4-168.7c-419.8-92-546.3-105.4-1035.2-105.4c-513.8,0-636.5,13.4-1027.5,124.6c-352.7,97.8-442.8,178.3-498.4,440.9C3255.4-1797.8,2927.6-315.9,2872-118.5c-88.2,316.3-95.8,527.2-26.8,659.5c113.1,212.8,324,360.4,540.6,379.6c103.5,9.6,120.8,17.2,143.8,63.3c34.5,65.2,176.4,189.8,233.9,203.2c24.9,7.7,65.2,51.7,99.7,113.1c72.9,128.4,195.5,232,316.3,268.4c162.9,49.8,270.3,34.5,429.4-61.3c120.8-70.9,199.4-69,325.9,7.7c174.5,103.5,371.9,103.5,525.3-1.9l65.2-44.1l57.5,46C5741.8,1649,5927.7,1672,6117.5,1580z"/><path d="M3251.6,2661.2v-488.8h603.9h603.9v488.8v488.8h-603.9h-603.9V2661.2z"/><path d="M5532.9,2661.2v-488.8h603.8h603.9v488.8v488.8h-603.9h-603.8V2661.2z"/><path d="M5715,1185.1c-153.4-166.8-197.5-168.7-343.2-19.2c-124.6,130.4-170.6,134.2-316.3,34.5c-86.3-59.4-122.7-72.8-224.3-78.6c-149.5-9.6-283.7,21.1-358.5,84.3c-74.8,63.3-136.1,74.8-220.5,42.2c-61.3-23-78.6-44.1-118.9-143.8c-61.3-149.5-80.5-170.6-178.3-195.5c-97.8-23-149.5-74.8-205.1-205.1c-51.8-124.6-99.7-149.5-228.1-118.8c-128.4,28.8-218.5,7.7-299.1-70.9c-103.5-103.5-116.9-191.7-65.2-396.8l44.1-168.7l105.4-40.3c176.4-67.1,523.3-147.6,807.1-189.8c692-101.6,1514.4-57.5,2394.4,124.6c172.5,36.4,318.2,69,322,72.9c3.9,3.8,17.3,53.7,28.8,111.2c30.7,147.6,9.6,228.1-88.2,337.4c-105.4,118.8-118.8,145.7-136.1,281.8c-9.6,86.3-24.9,122.7-63.3,157.2c-44.1,42.2-61.3,46-216.6,42.2c-212.8-7.7-233.9,9.6-262.7,214.7c-17.3,122.7-28.8,151.4-80.5,197.4C5912.4,1346.1,5851.1,1330.8,5715,1185.1z"/><path d="M3376.2-825.8c44.1-210.9,153.4-718.9,239.6-1127.2l161-743.8l103.5-38.3c57.5-23,107.4-36.4,111.2-34.5c9.6,9.6-157.2,2179.6-168.7,2191.2c-5.7,5.7-105.4,32.6-218.5,57.5c-115,26.8-232,55.6-258.8,65.2l-49.8,17.2L3376.2-825.8z"/><path d="M6414.7-505.7c-132.3-26.8-243.5-51.8-247.3-55.6c-9.6-7.7-176.4-2218-168.7-2225.7c3.9-1.9,23,0,44.1,5.7c30.7,7.7,53.7,49.9,90.1,157.2c51.8,153.4,588.5,2110.7,588.5,2149C6721.4-448.2,6698.4-450.1,6414.7-505.7z"/><path d="M5667-618.8c-15.4-5.7-136.1-15.3-266.5-23l-237.7-13.4l-1.9-1127.2l-1.9-1129.1l134.2,13.4c147.6,13.4,356.6,44.1,364.2,51.8c7.7,7.7,162.9,2095.3,162.9,2177.7c0,57.5-3.8,61.3-61.4,59.4C5724.6-611.2,5682.3-615,5667-618.8z"/><path d="M4171.8-684c0-141.9,157.2-2158.6,168.7-2170.1c15.3-13.4,325.9-53.7,425.6-53.7h67.1l-3.8,993c-1.9,544.5-3.8,1048.6-3.8,1117.6l-1.9,126.5l-176.4,13.4c-97.8,7.7-245.4,17.2-325.9,24.9l-149.5,11.5V-684z"/></g></g>
</svg>